<svg xmlns="http://www.w3.org/2000/svg" viewBox="0 0 759.08 140.28"><defs><style>.cls-1{fill:#ff6700;}</style></defs><title>logo_h2px</title><g id="Capa_2" data-name="Capa 2"><g id="Capa_1-2" data-name="Capa 1"><path class="cls-1" d="M123.56,0H44.77a2.69,2.69,0,0,0-2.69,2.69V81.48a2.7,2.7,0,0,0,2.69,2.69H95.51a2.69,2.69,0,0,1,2.69,2.68v22.69a2.69,2.69,0,0,1-2.69,2.68H72.83a2.68,2.68,0,0,1-2.69-2.68v-9.08a2.68,2.68,0,0,0-2.69-2.69H44.77a2.69,2.69,0,0,0-2.69,2.69v37.13a2.69,2.69,0,0,0,2.69,2.69h78.79a2.68,2.68,0,0,0,2.69-2.69V58.8a2.68,2.68,0,0,0-2.69-2.69H72.83a2.68,2.68,0,0,1-2.69-2.68V30.74a2.68,2.68,0,0,1,2.69-2.68H95.51a2.69,2.69,0,0,1,2.69,2.68v9.08a2.68,2.68,0,0,0,2.68,2.69h22.68a2.68,2.68,0,0,0,2.69-2.69V2.69A2.68,2.68,0,0,0,123.56,0Z"/><rect class="cls-1" y="84.17" width="28.06" height="28.06" rx="0.52"/><rect class="cls-1" x="140.28" y="28.06" width="28.06" height="28.06" rx="0.52"/><path class="cls-1" d="M242.18,110.32a76.07,76.07,0,0,1-16.82-1.82,44.09,44.09,0,0,1-13.29-5l4.5-18.21A60.75,60.75,0,0,0,225.09,89a68.08,68.08,0,0,0,9.64,2.68,46.16,46.16,0,0,0,8.84,1c3.14,0,5.54-.5,7.18-1.5a4.83,4.83,0,0,0,2.46-4.39,4.44,4.44,0,0,0-.75-2.52,7.25,7.25,0,0,0-2.57-2.14,32.07,32.07,0,0,0-5.09-2.15c-2.18-.75-4.94-1.59-8.3-2.51a56.31,56.31,0,0,1-10.93-4.08A29.93,29.93,0,0,1,218,68a19.24,19.24,0,0,1-4.44-6.75A22.62,22.62,0,0,1,212.07,53q0-11.14,8.63-17.09T245.39,30a89.88,89.88,0,0,1,15.48,1.34,59.32,59.32,0,0,1,13.35,3.8l-4.5,18.22a57.33,57.33,0,0,0-12.17-4.24,56.54,56.54,0,0,0-12.48-1.44q-5.35,0-7.93,1.23a4.17,4.17,0,0,0-2.57,4,5.91,5.91,0,0,0,.64,2.73,6.35,6.35,0,0,0,2.36,2.3,27.79,27.79,0,0,0,4.77,2.25c2,.79,4.66,1.65,7.87,2.58a75.17,75.17,0,0,1,11.68,4.39,32.15,32.15,0,0,1,7.88,5.2,18,18,0,0,1,4.5,6.42,21.32,21.32,0,0,1,1.44,8q0,11.35-8.73,17.46T242.18,110.32Z"/><path class="cls-1" d="M320.93,110.32q-12.75,0-21.91-4.77a32.57,32.57,0,0,1-14-13.77q-4.81-9-4.82-21.64T285,48.5a32.57,32.57,0,0,1,14-13.77Q308.19,30,320.93,30t22,4.77A32.6,32.6,0,0,1,356.82,48.5q4.83,9,4.82,21.64t-4.82,21.64a32.6,32.6,0,0,1-13.93,13.77Q333.79,110.32,320.93,110.32Zm0-18.22a20.18,20.18,0,0,0,10.39-2.46,15.11,15.11,0,0,0,6.27-7.34,31,31,0,0,0,2.09-12.16A31,31,0,0,0,337.59,58a15.11,15.11,0,0,0-6.27-7.34,23.09,23.09,0,0,0-20.78,0A15.11,15.11,0,0,0,304.27,58a31,31,0,0,0-2.09,12.16,31,31,0,0,0,2.09,12.16,15.11,15.11,0,0,0,6.27,7.34A20.18,20.18,0,0,0,320.93,92.1Z"/><path class="cls-1" d="M370,109.25V31h22V91h37v18.22Z"/><path class="cls-1" d="M435.24,109.25V31h22.5v78.22Z"/><path class="cls-1" d="M496.56,110.32q-5.25,0-12.54-.43t-14.25-1.07V31.46q7-.64,14.25-1.07T496.56,30q14.46,0,23.14,4a24.51,24.51,0,0,1,12.59,12.81q3.91,8.84,3.91,23.41t-3.91,23.41a24.45,24.45,0,0,1-12.59,12.8Q511,110.33,496.56,110.32ZM498,93.18q6.65,0,10.18-1.88T513,84.44q1.29-5,1.29-14.3T513,55.78q-1.28-4.92-4.82-6.8T498,47.1c-1.5,0-3.52.06-6.05.16s-6,.34-10.34.7l9.64-9.43v63.22l-9.64-9.43c4.36.28,7.8.5,10.34.64S496.45,93.18,498,93.18Z"/><path class="cls-1" d="M545.15,109.25V31h56.79V48.17H566.58V60.82H599.8v16.5H566.58V92.1h35.36v17.15Z"/><path class="cls-1" d="M607.67,109.25,627,70.14,607.67,31h24.11l11.14,27.32h.22L654.28,31h24.11L659.1,70.14l19.29,39.11H654.28L643.14,81.93h-.22l-11.14,27.32Z"/><path class="cls-1" d="M681.93,109.25,706,31H735l24.11,78.22H735.5l-14.89-60h-.21l-14.9,60Zm17.68-14.47V77.1H741.4V94.78Z"/></g></g></svg>